<svg width="39" height="39" viewBox="0 0 39 39" fill="none" xmlns="http://www.w3.org/2000/svg">
<g opacity="0.3">
<path fill-rule="evenodd" clip-rule="evenodd" d="M0.797484 6.40147L2.15111 7.75576L2.38577 7.98976L5.66642 11.2711L5.66841 11.2684L7.75983 13.3605L12.1932 12.1726L13.3805 7.73985L11.2891 5.64776L11.291 5.64578L8.00974 2.36447L7.77574 2.13046L6.42211 0.776841C8.32067 -0.00405632 10.4088 -0.201784 12.4202 0.208874C14.4316 0.619533 16.2751 1.61997 17.7156 3.08259C19.1561 4.54521 20.1283 6.40374 20.5083 8.42115C20.8882 10.4386 20.6587 12.5234 19.849 14.4099L19.8755 14.4364L16.2634 18.0478C15.1737 17.7203 14.0156 17.6942 12.9123 17.9723C11.8089 18.2503 10.8015 18.8221 9.99709 19.6268L9.04054 20.5834C7.46745 20.3816 5.96189 19.8206 4.64044 18.9436C3.319 18.0666 2.21712 16.8973 1.42014 15.5261C0.623165 14.1549 0.152463 12.6187 0.0444876 11.0364C-0.0634875 9.45412 0.194162 7.86821 0.797484 6.40147ZM20.3839 26.1941L29.9375 35.7477C30.3057 36.1219 30.7444 36.4196 31.2283 36.6235C31.7121 36.8274 32.2315 36.9334 32.7565 36.9356C33.2816 36.9377 33.8018 36.8359 34.2873 36.6359C34.7728 36.436 35.2139 36.1419 35.5851 35.7707C35.9564 35.3994 36.2505 34.9583 36.4504 34.4728C36.6503 33.9874 36.7522 33.4671 36.75 32.9421C36.7479 32.417 36.6418 31.8976 36.438 31.4138C36.2341 30.9299 35.9364 30.4913 35.5621 30.123L24.0941 18.655L20.482 22.2664C20.8672 23.5529 20.8328 24.9285 20.3839 26.1941Z" fill="#8F8D44"/>
<path d="M17.7324 20.7981L25.2324 13.2988L17.7324 20.7981Z" fill="#8F8D44"/>
<path d="M34.6059 0.175781L38.3559 3.92576L30.9779 13.1784L25.2313 13.3004L25.3533 7.5531L34.6059 0.175781ZM11.1694 20.8003C11.6003 20.3694 12.1119 20.0276 12.6749 19.7944C13.2379 19.5612 13.8413 19.4412 14.4507 19.4412C15.0601 19.4412 15.6636 19.5612 16.2266 19.7944C16.7896 20.0276 17.3011 20.3694 17.7321 20.8003C18.163 21.2312 18.5048 21.7428 18.738 22.3058C18.9712 22.8688 19.0912 23.4722 19.0912 24.0816C19.0912 24.691 18.9712 25.2945 18.738 25.8575C18.5048 26.4205 18.163 26.932 17.7321 27.3629L6.95013 38.1429C6.82701 38.266 6.68084 38.3637 6.51995 38.4304C6.35906 38.4971 6.18662 38.5314 6.01247 38.5314C5.83832 38.5314 5.66588 38.4971 5.50499 38.4304C5.34411 38.3637 5.19793 38.266 5.07481 38.1429L0.388171 33.4549C0.139625 33.2063 0 32.8691 0 32.5176C0 32.166 0.139625 31.8289 0.388171 31.5803L11.1694 20.8003Z" fill="#8F8D44"/>
</g>
</svg>
