<svg width="55" height="55" viewBox="0 0 55 55" fill="none" xmlns="http://www.w3.org/2000/svg">
<path opacity="0.3" d="M25.6667 0V7.33333H29.3333V0H25.6667ZM12.298 13.3687L6.798 7.86867L4.202 10.4647L9.702 15.9647L12.298 13.3687ZM45.298 15.9647L50.798 10.4647L48.202 7.86867L42.702 13.3687L45.298 15.9647ZM27.5 11C24.0049 11.0002 20.6272 12.261 17.9869 14.5511C15.3466 16.8411 13.6209 20.0067 13.1267 23.4667L13.09 23.7233C12.8111 25.651 12.9238 27.6152 13.4215 29.4983C13.9193 31.3815 14.7917 33.1448 15.9867 34.683C17.391 36.498 18.3333 38.2323 18.3333 39.9703V45.8333C18.3333 46.3196 18.5265 46.7859 18.8703 47.1297C19.2141 47.4735 19.6804 47.6667 20.1667 47.6667H34.8333C35.3196 47.6667 35.7859 47.4735 36.1297 47.1297C36.4735 46.7859 36.6667 46.3196 36.6667 45.8333V39.9703C36.6667 38.2323 37.609 36.498 39.0133 34.683C41.3233 31.6983 42.4893 27.808 41.91 23.7197L41.8733 23.463C41.3783 20.0037 39.6523 16.839 37.012 14.5497C34.3718 12.2604 30.9945 11.0001 27.5 11ZM0 29.3333H7.33333V25.6667H0V29.3333ZM47.6667 29.3333H55V25.6667H47.6667V29.3333ZM22 55H33V51.3333H22V55Z" fill="#979702"/>
</svg>
