<svg width="24" height="29" viewBox="0 0 24 29" fill="none" xmlns="http://www.w3.org/2000/svg">
<path d="M7.5 15.95C7.5 17.1037 7.97411 18.2101 8.81802 19.0259C9.66193 19.8417 10.8065 20.3 12 20.3C13.1935 20.3 14.3381 19.8417 15.182 19.0259C16.0259 18.2101 16.5 17.1037 16.5 15.95C16.5 14.7963 16.0259 13.6899 15.182 12.8741C14.3381 12.0583 13.1935 11.6 12 11.6C10.8065 11.6 9.66193 12.0583 8.81802 12.8741C7.97411 13.6899 7.5 14.7963 7.5 15.95ZM24 25.5055V8.7L15 0H3C2.20435 0 1.44129 0.305535 0.87868 0.84939C0.31607 1.39325 0 2.13087 0 2.9V26.1C0 26.8691 0.31607 27.6068 0.87868 28.1506C1.44129 28.6945 2.20435 29 3 29H21C21.675 29 22.275 28.7825 22.785 28.42L16.14 21.9965C14.94 22.7505 13.5 23.2 12 23.2C10.0109 23.2 8.10322 22.4362 6.6967 21.0765C5.29018 19.7169 4.5 17.8728 4.5 15.95C4.5 14.0272 5.29018 12.1831 6.6967 10.8235C8.10322 9.46384 10.0109 8.7 12 8.7C13.9891 8.7 15.8968 9.46384 17.3033 10.8235C18.7098 12.1831 19.5 14.0272 19.5 15.95C19.5 17.4 19.035 18.792 18.255 19.9375L24 25.5055Z" fill="black"/>
</svg>
