<svg width="26" height="30" viewBox="0 0 26 30" fill="none" xmlns="http://www.w3.org/2000/svg">
<path d="M15.1667 7.5C15.1667 8.35248 15.5091 9.17005 16.1186 9.77284C16.7281 10.3756 17.5547 10.7143 18.4167 10.7143H26V26.7857C26 27.6382 25.6576 28.4558 25.0481 29.0586C24.4386 29.6614 23.612 30 22.75 30H7.58333C6.72138 30 5.89473 29.6614 5.28524 29.0586C4.67574 28.4558 4.33333 27.6382 4.33333 26.7857V23.5714H11.9167C12.7786 23.5714 13.6053 23.2328 14.2148 22.63C14.8243 22.0272 15.1667 21.2096 15.1667 20.3571C15.1667 19.5047 14.8243 18.6871 14.2148 18.0843C13.6053 17.4815 12.7786 17.1429 11.9167 17.1429H4.33333V3.21429C4.33333 2.3618 4.67574 1.54424 5.28524 0.941443C5.89473 0.338647 6.72138 0 7.58333 0H15.1667V7.5ZM9.75 25.7143C9.46268 25.7143 9.18713 25.8272 8.98397 26.0281C8.7808 26.229 8.66667 26.5016 8.66667 26.7857C8.66667 27.0699 8.7808 27.3424 8.98397 27.5433C9.18713 27.7443 9.46268 27.8571 9.75 27.8571H20.5833C20.8707 27.8571 21.1462 27.7443 21.3494 27.5433C21.5525 27.3424 21.6667 27.0699 21.6667 26.7857C21.6667 26.5016 21.5525 26.229 21.3494 26.0281C21.1462 25.8272 20.8707 25.7143 20.5833 25.7143H9.75ZM11.9167 19.2857C12.204 19.2857 12.4795 19.3986 12.6827 19.5995C12.8859 19.8005 13 20.073 13 20.3571C13 20.6413 12.8859 20.9138 12.6827 21.1148C12.4795 21.3157 12.204 21.4286 11.9167 21.4286H1.08333C0.796016 21.4286 0.520465 21.3157 0.317301 21.1148C0.114137 20.9138 0 20.6413 0 20.3571C0 20.073 0.114137 19.8005 0.317301 19.5995C0.520465 19.3986 0.796016 19.2857 1.08333 19.2857H11.9167ZM9.75 12.8571C9.46268 12.8571 9.18713 12.97 8.98397 13.171C8.7808 13.3719 8.66667 13.6444 8.66667 13.9286C8.66667 14.2127 8.7808 14.4853 8.98397 14.6862C9.18713 14.8871 9.46268 15 9.75 15H20.5833C20.8707 15 21.1462 14.8871 21.3494 14.6862C21.5525 14.4853 21.6667 14.2127 21.6667 13.9286C21.6667 13.6444 21.5525 13.3719 21.3494 13.171C21.1462 12.97 20.8707 12.8571 20.5833 12.8571H9.75ZM25.4583 8.57143H18.4167C18.1293 8.57143 17.8538 8.45855 17.6506 8.25761C17.4475 8.05668 17.3333 7.78416 17.3333 7.5V0.535714L25.4583 8.57143Z" fill="black"/>
</svg>
